<svg width="38" height="38" viewBox="0 0 38 38" fill="none" xmlns="http://www.w3.org/2000/svg">
<path opacity="0.77" d="M26.007 11.6498C26.007 11.8071 25.8783 11.9359 25.7209 11.9359H23.7182C23.5608 11.9359 23.4321 11.8071 23.4321 11.6498V9.93311H14.2765V11.6498C14.2765 11.8071 14.1477 11.9359 13.9904 11.9359H11.9876C11.8302 11.9359 11.7015 11.8071 11.7015 11.6498V9.93311H7.12372V14.797H30.5848V9.93311H26.007V11.6498Z" fill="#FAF9F5"/>
<path d="M32.0154 7.3582H26.007V5.06931C26.007 4.91195 25.8783 4.7832 25.7209 4.7832H23.7181C23.5608 4.7832 23.432 4.91195 23.432 5.06931V7.3582H14.2765V5.06931C14.2765 4.91195 14.1477 4.7832 13.9904 4.7832H11.9876C11.8302 4.7832 11.7015 4.91195 11.7015 5.06931V7.3582H5.69315C5.06013 7.3582 4.54871 7.86963 4.54871 8.50265V32.2499C4.54871 32.8829 5.06013 33.3943 5.69315 33.3943H32.0154C32.6484 33.3943 33.1598 32.8829 33.1598 32.2499V8.50265C33.1598 7.86963 32.6484 7.3582 32.0154 7.3582ZM30.5848 30.8193H7.12371V17.229H30.5848V30.8193ZM30.5848 14.7971H7.12371V9.9332H11.7015V11.6499C11.7015 11.8072 11.8302 11.936 11.9876 11.936H13.9904C14.1477 11.936 14.2765 11.8072 14.2765 11.6499V9.9332H23.432V11.6499C23.432 11.8072 23.5608 11.936 23.7181 11.936H25.7209C25.8783 11.936 26.007 11.8072 26.007 11.6499V9.9332H30.5848V14.7971Z" fill="#FAF9F5"/>
</svg>
