<svg width="43" height="43" viewBox="0 0 43 43" fill="none" xmlns="http://www.w3.org/2000/svg">
<mask id="mask0_31_27" style="mask-type:luminance" maskUnits="userSpaceOnUse" x="3" y="6" width="38" height="31">
<path d="M9.2533 17.0986C9.2533 17.0986 4.75233 18.849 4.00232 24.9751M33.7579 17.0986C33.7579 17.0986 38.2588 18.849 39.0089 24.9751M16.2546 17.0986C16.2546 17.0986 20.4554 18.1199 21.5056 23.2248C22.5558 18.1199 26.7566 17.0986 26.7566 17.0986M18.0049 30.2261C18.0049 30.2261 14.3292 30.8825 12.754 35.4771M25.0062 30.2261C25.0062 30.2261 28.6819 30.8825 30.2572 35.4771" stroke="white" stroke-width="2" stroke-linecap="round"/>
<path d="M21.5056 31.9764C23.9223 31.9764 25.8814 30.0172 25.8814 27.6005C25.8814 25.1839 23.9223 23.2247 21.5056 23.2247C19.0889 23.2247 17.1298 25.1839 17.1298 27.6005C17.1298 30.0172 19.0889 31.9764 21.5056 31.9764Z" fill="#555555" stroke="white" stroke-width="2" stroke-linecap="round" stroke-linejoin="round"/>
<path d="M30.2572 17.9738C33.1572 17.9738 35.5082 15.6228 35.5082 12.7228C35.5082 9.82275 33.1572 7.4718 30.2572 7.4718C27.3572 7.4718 25.0062 9.82275 25.0062 12.7228C25.0062 15.6228 27.3572 17.9738 30.2572 17.9738Z" fill="#555555" stroke="white" stroke-width="2" stroke-linecap="round" stroke-linejoin="round"/>
<path d="M12.7539 17.9738C15.6539 17.9738 18.0049 15.6228 18.0049 12.7228C18.0049 9.82275 15.6539 7.4718 12.7539 7.4718C9.85387 7.4718 7.50293 9.82275 7.50293 12.7228C7.50293 15.6228 9.85387 17.9738 12.7539 17.9738Z" fill="#555555" stroke="white" stroke-width="2" stroke-linecap="round" stroke-linejoin="round"/>
</mask>
<g mask="url(#mask0_31_27)">
<path d="M0.501709 0.470459H42.5095V42.4783H0.501709V0.470459Z" fill="#FAF9F5"/>
</g>
</svg>
