<svg width="41" height="41" viewBox="0 0 41 41" fill="none" xmlns="http://www.w3.org/2000/svg">
<path opacity="0.2" d="M35.3392 10.6987L20.3941 15.6804L5.44897 10.6987L20.3941 5.71704L35.3392 10.6987Z" fill="#001D0A"/>
<path d="M35.733 9.51718L20.7879 4.53548C20.5322 4.45025 20.2558 4.45025 20.0001 4.53548L5.05505 9.51718C4.829 9.59342 4.6296 9.73299 4.48057 9.91927C4.33154 10.1056 4.23915 10.3307 4.21439 10.568C4.20708 10.6112 4.20344 10.655 4.20349 10.6988V23.153C4.20349 23.4833 4.33471 23.8001 4.56827 24.0337C4.80183 24.2672 5.11861 24.3984 5.44892 24.3984C5.77922 24.3984 6.096 24.2672 6.32956 24.0337C6.56313 23.8001 6.69434 23.4833 6.69434 23.153V12.4268L11.9236 14.1688C10.5342 16.4134 10.0924 19.1176 10.6952 21.6876C11.2979 24.2577 12.8959 26.4835 15.1383 27.8763C12.3361 28.9754 9.91376 30.9634 8.14215 33.6815C8.05001 33.8185 7.98601 33.9724 7.95387 34.1342C7.92173 34.2961 7.92209 34.4628 7.95493 34.6246C7.98777 34.7863 8.05243 34.9399 8.14516 35.0765C8.23789 35.213 8.35683 35.3297 8.49507 35.4199C8.63332 35.5101 8.78811 35.5719 8.95044 35.6017C9.11278 35.6315 9.27942 35.6288 9.44068 35.5936C9.60195 35.5585 9.75462 35.4916 9.88982 35.3969C10.025 35.3023 10.1401 35.1817 10.2282 35.0422C12.5743 31.4429 16.2794 29.3801 20.394 29.3801C24.5086 29.3801 28.2137 31.4429 30.5598 35.0422C30.7425 35.3136 31.0246 35.5023 31.3453 35.5674C31.666 35.6325 31.9994 35.5688 32.2735 35.3901C32.5476 35.2113 32.7403 34.9319 32.81 34.6121C32.8796 34.2924 32.8207 33.9581 32.6459 33.6815C30.8743 30.9634 28.4426 28.9754 25.6497 27.8763C27.89 26.4835 29.4865 24.2592 30.0891 21.691C30.6917 19.1229 30.2513 16.4205 28.8645 14.1766L35.733 11.8882C35.981 11.8055 36.1968 11.6469 36.3497 11.4349C36.5025 11.2228 36.5848 10.968 36.5848 10.7066C36.5848 10.4451 36.5025 10.1903 36.3497 9.97824C36.1968 9.76616 35.981 9.60758 35.733 9.52496V9.51718ZM27.8666 19.4167C27.8669 20.5981 27.5871 21.7627 27.0502 22.815C26.5133 23.8674 25.7345 24.7774 24.7778 25.4704C23.8211 26.1635 22.7137 26.6198 21.5464 26.802C20.3792 26.9842 19.1854 26.8871 18.063 26.5185C16.9405 26.15 15.9215 25.5206 15.0894 24.682C14.2574 23.8433 13.636 22.8194 13.2763 21.6941C12.9166 20.5688 12.8288 19.3743 13.0201 18.2085C13.2115 17.0427 13.6765 15.939 14.3771 14.9877L20.0001 16.8558C20.2558 16.9411 20.5322 16.9411 20.7879 16.8558L26.411 14.9877C27.3571 16.2705 27.8672 17.8228 27.8666 19.4167ZM20.394 14.3681L9.38757 10.6988L20.394 7.02944L31.4005 10.6988L20.394 14.3681Z" fill="#001D0A"/>
</svg>
