<svg width="181" height="21" viewBox="0 0 181 21" fill="none" xmlns="http://www.w3.org/2000/svg">
<path d="M3.45789 2.98621C3.54965 2.98621 3.64141 2.98621 31.0792 3.44501C58.5171 3.90381 113.298 4.82142 141.381 5.38589C169.464 5.95035 169.189 6.13387 168.909 6.2743C168.63 6.41472 168.355 6.50648 161.652 6.69139C154.949 6.8763 141.827 7.15158 134.471 7.38516C125.916 7.65679 123.592 7.99133 121.235 8.08309C118.591 8.18605 114.983 8.63922 111.371 8.82413C109.96 8.89636 109.411 9.00904 88.9399 9.37747C68.4689 9.74591 28.0942 10.3882 26.6566 11.2238C25.2191 12.0594 63.9421 13.0688 84.5326 13.6805C105.123 14.2922 106.408 14.4758 107.437 14.6621C108.465 14.8484 109.2 15.0319 120.772 15.5852C132.345 16.1386 154.735 17.0562 177.803 18.0016" stroke="#1DB954" stroke-width="5" stroke-linecap="round"/>
</svg>
